<svg xmlns="http://www.w3.org/2000/svg" fill="none" viewBox="0 0 130 17"><path fill="#000" d="M3.39.336c.214 0 .387.174.387.387V15.63a.387.387 0 01-.387.387H1.26a.388.388 0 01-.387-.387V.723c0-.213.174-.387.388-.387H3.39zM9.995.338c.118 0 .228.053.302.145l8.254 10.259V.725c0-.214.174-.387.387-.387h2.13c.214 0 .387.173.387.387v14.906a.387.387 0 01-.387.387h-1.746a.388.388 0 01-.302-.145L10.765 5.614v10.017a.387.387 0 01-.387.387h-2.13a.388.388 0 01-.387-.387V.725c0-.214.174-.387.388-.387h1.746zM27.673.338c.137 0 .263.072.333.19l5.882 9.911L39.69.53a.387.387 0 01.334-.191h1.746c.214 0 .387.173.387.387l.021 14.905a.388.388 0 01-.387.388h-2.044a.387.387 0 01-.387-.386l-.02-9.459-4.67 7.846a.387.387 0 01-.332.19h-.98a.388.388 0 01-.332-.19l-4.668-7.786v9.398a.387.387 0 01-.387.387h-2.044a.387.387 0 01-.387-.387V.725c0-.214.173-.387.387-.387h1.746zM46.994.338c.136 0 .261.07.331.186l4.44 7.313 4.46-7.314a.388.388 0 01.33-.185h2.108c.302 0 .488.33.332.588l-5.864 9.66v5.045a.387.387 0 01-.387.387h-2.108a.388.388 0 01-.388-.387v-5.087L44.385.926a.387.387 0 01.33-.588h2.28zM67.145.338c4.075 0 6.606 2.114 6.606 5.583-.005 2.304-1.08 3.835-3.07 4.88l3.254 4.606a.388.388 0 01-.316.611h-2.32a.387.387 0 01-.318-.165l-3.09-4.4c-.248.02-.497.027-.746.03H63.85v4.148a.387.387 0 01-.387.387h-2.13a.387.387 0 01-.386-.387L60.945.725c0-.214.173-.387.387-.387h5.813zm-.063 2.627h-3.233v5.933h3.233c2.49 0 3.765-1.05 3.765-2.977 0-1.92-1.268-2.956-3.765-2.956zM83.93.168c4.75 0 8.287 3.41 8.287 8.01s-3.537 8.01-8.287 8.01c-4.779 0-8.33-3.417-8.33-8.01S79.15.168 83.93.168zm0 2.67c-3.133 0-5.427 2.257-5.427 5.34 0 3.083 2.294 5.341 5.427 5.341 3.095 0 5.383-2.264 5.383-5.341 0-3.077-2.288-5.34-5.383-5.34zM102.204.168c4.75 0 8.287 3.41 8.287 8.01s-3.537 8.01-8.287 8.01c-4.778 0-8.33-3.417-8.33-8.01s3.552-8.01 8.33-8.01zm0 2.67c-3.133 0-5.426 2.257-5.426 5.34 0 3.083 2.293 5.341 5.426 5.341 3.097 0 5.384-2.264 5.384-5.341 0-3.077-2.287-5.34-5.384-5.34zM115.495.338c.137 0 .264.072.333.19l5.883 9.911 5.8-9.91a.388.388 0 01.334-.191h1.747c.213 0 .386.173.387.387L130 15.63a.387.387 0 01-.387.388h-2.044a.387.387 0 01-.387-.386l-.019-9.459-4.67 7.846a.387.387 0 01-.333.19h-.979a.386.386 0 01-.332-.19l-4.669-7.786v9.398a.387.387 0 01-.387.387h-2.044a.387.387 0 01-.387-.387V.725c0-.214.173-.387.387-.387h1.746z"/></svg>